<svg width="25" height="25" viewBox="0 0 25 25" fill="none" xmlns="http://www.w3.org/2000/svg">
<g clip-path="url(#clip0_92_1146)">
<path d="M12.2637 0.0404053C5.64667 0.0404053 0.263672 5.42341 0.263672 12.0404C0.263672 18.6574 5.64667 24.0404 12.2637 24.0404C18.8807 24.0404 24.2637 18.6574 24.2637 12.0404H21.5637C21.5637 17.1684 17.3917 21.3404 12.2637 21.3404C7.13567 21.3404 2.96367 17.1684 2.96367 12.0404C2.96367 6.91241 7.13567 2.74041 12.2637 2.74041V0.0404053ZM19.6637 2.62341L12.1587 11.9944L8.65167 9.12041L6.64967 11.5564L11.3907 15.4444C11.5517 15.5773 11.7376 15.6767 11.9375 15.737C12.1374 15.7973 12.3473 15.8171 12.555 15.7954C12.7627 15.7738 12.9639 15.711 13.1471 15.6107C13.3302 15.5104 13.4915 15.3747 13.6217 15.2114L22.1257 4.59441L19.6637 2.62341Z" fill="black"/>
</g>
<defs>
<clipPath id="clip0_92_1146">
<rect width="24" height="24" fill="white" transform="translate(0.263672 0.0404053)"/>
</clipPath>
</defs>
</svg>
